# xmcd
#
# Track frame offsets: 
#        150
#        12912
#        26938
#        43884
#        57906
#        71391
#        88074
#        101046
#        120050
#        135834
#        149929
#        163167
#
# Disc length: 2474 seconds
#
# Revision: 1
# Processed by: cddbd v1.4PL0 Copyright (c) Steve Scherf et al.
# Submitted via: ExactAudioCopy v0.95a3
#
DISCID=a709a80c
DTITLE=Los Charros - Imbatibles
DYEAR=1999
DGENRE=Latin
TTITLE0=La Pollera Colorada
TTITLE1=Porque Porque
TTITLE2=Encontrarte
TTITLE3=Que Te Pasa
TTITLE4=Indiferente
TTITLE5=Aliviame
TTITLE6=Pienso En Ti
TTITLE7=Por Eso Ahora
TTITLE8=La Distancia
TTITLE9=Sin Mi
TTITLE10=Hijo Mio
TTITLE11=Cariño Yo Creo En Ti
EXTD=editado por damianfo
EXTT0=
EXTT1=
EXTT2=
EXTT3=
EXTT4=
EXTT5=
EXTT6=
EXTT7=
EXTT8=
EXTT9=
EXTT10=
EXTT11=
PLAYORDER=
